<svg width="16" height="14" viewBox="0 0 16 14" fill="none" xmlns="http://www.w3.org/2000/svg">
<g clip-path="url(#clip0_2282_856)">
<path d="M1.1948 14H14.3539C14.6223 14 14.8479 13.7104 14.8479 13.3662C14.8479 13.0218 14.6223 12.7401 14.3539 12.7401H1.1948C0.926494 12.7401 0.70697 13.0218 0.70697 13.3662C0.70697 13.7104 0.926494 14 1.1948 14Z" fill="#24F07D"/>
<path d="M3.42662 8.75666L13.8845 5.18037C15.0553 4.77343 15.9333 3.67003 15.6162 2.55098C15.3235 1.53365 14.1466 1.28323 13.0978 1.73712L9.43305 3.34918C9.17688 3.45873 8.994 3.45091 8.7013 3.27092L3.59126 0.171995C3.42662 0.0780879 3.24369 0.0546112 3.07904 0.117216L2.65829 0.281553C2.51194 0.344158 2.46316 0.563274 2.59731 0.743263L6.09139 5.50122L6.20724 4.75778L3.12173 6.11944L4.31691 6.16639L0.743563 4.53867C0.578921 4.46824 0.432572 4.49954 0.274028 4.68736L0.0971903 4.89864C-0.0247672 5.03951 -0.0308651 5.22732 0.0727985 5.36819L2.21315 8.45146C2.49365 8.85839 2.9083 8.93665 3.42662 8.75666Z" fill="#24F07D"/>
</g>
<defs>
<clipPath id="clip0_2282_856">
<rect width="16" height="14" fill="white"/>
</clipPath>
</defs>
</svg>
