<svg width="16" height="12" viewBox="0 0 16 12" fill="none" xmlns="http://www.w3.org/2000/svg">
<g clip-path="url(#clip0_2282_887)">
<path d="M0 9.04396C0 10.734 1.5355 12 3.41496 12C5.28828 12 6.81765 10.734 6.81765 9.04396V7.4932C7.11861 7.3781 7.48098 7.31148 7.84336 7.31148C8.24261 7.31148 8.58657 7.35388 8.86291 7.4508V9.04396C8.86291 10.734 10.3923 12 12.2656 12C14.139 12 15.6806 10.734 15.6806 9.04396C15.6806 8.60177 15.613 8.18981 15.3612 7.61435L12.8123 1.75066C12.4622 0.963182 11.7313 0.502808 10.81 0.502808C9.63069 0.502808 8.86291 1.24182 8.86291 2.35035V2.93793C8.55583 2.85919 8.21801 2.81678 7.84336 2.81678C7.48713 2.81678 7.14317 2.8713 6.81765 2.97428V2.35035C6.81765 1.24182 6.04989 0.502808 4.87062 0.502808C3.94932 0.502808 3.21228 0.963182 2.86833 1.75066L0.313244 7.61435C0.0614202 8.18981 0 8.60177 0 9.04396ZM0.964296 9.04396C0.964296 7.8264 2.02686 6.99648 3.41496 6.99648C4.79692 6.99648 5.89634 7.8264 5.89634 9.04396C5.89634 10.2615 4.79692 11.0914 3.41496 11.0914C2.02686 11.0914 0.964296 10.2615 0.964296 9.04396ZM9.78423 9.04396C9.78423 7.8264 10.8775 6.99648 12.2656 6.99648C13.6476 6.99648 14.7101 7.8264 14.7101 9.04396C14.7101 10.2615 13.6476 11.0914 12.2656 11.0914C10.8775 11.0914 9.78423 10.2615 9.78423 9.04396ZM6.81765 5.64565V4.82183C7.14317 4.71885 7.48713 4.67039 7.84336 4.67039C8.21801 4.67039 8.55583 4.70673 8.86291 4.78549V5.59719C8.58657 5.50633 8.24875 5.46393 7.84336 5.46393C7.48098 5.46393 7.11861 5.53056 6.81765 5.64565Z" fill="#24F07D"/>
</g>
<defs>
<clipPath id="clip0_2282_887">
<rect width="16" height="12" fill="white"/>
</clipPath>
</defs>
</svg>
