<svg width="16" height="18" viewBox="0 0 16 18" fill="none" xmlns="http://www.w3.org/2000/svg">
<g clip-path="url(#clip0_2282_846)">
<path d="M1.94459 18.0001H2.7882C3.32439 18.0001 3.73905 17.5491 3.73905 16.9738V15.683C5.15459 15.7919 6.55584 15.8464 7.81411 15.8464C9.07237 15.8464 10.4736 15.7997 11.8963 15.683V16.9738C11.8963 17.5491 12.3038 18.0001 12.84 18.0001H13.6836C14.2199 18.0001 14.6345 17.5491 14.6345 16.9738V2.0139C14.6345 1.01087 14.0911 0.435496 13.126 0.31109C11.6032 0.116706 9.65148 0.015625 7.81411 0.015625C5.99106 0.015625 4.03931 0.116706 2.50938 0.31109C1.53709 0.435496 1.00089 1.01087 1.00089 2.0139V16.9738C1.00089 17.5491 1.4084 18.0001 1.94459 18.0001ZM3.07417 10.5357C2.60232 10.4502 2.3664 10.1625 2.3664 9.61046V2.70591C2.3664 2.08388 2.63806 1.74954 3.18141 1.68733C6.16264 1.34521 9.48704 1.34521 12.4611 1.68733C13.0116 1.74954 13.269 2.08388 13.269 2.70591V9.61046C13.269 10.1625 13.0402 10.4502 12.5612 10.5357C9.59429 11.01 6.0125 11.01 3.07417 10.5357ZM3.51742 14.0035C2.98837 14.0035 2.59517 13.5681 2.59517 13.0005C2.59517 12.4252 2.98837 11.9975 3.51742 11.9975C4.04647 11.9975 4.43967 12.4252 4.43967 13.0005C4.43967 13.5681 4.04647 14.0035 3.51742 14.0035ZM6.25558 13.6615C5.88382 13.6615 5.62645 13.3815 5.62645 12.985C5.62645 12.5806 5.88382 12.3085 6.25558 12.3085H9.36551C9.73009 12.3085 9.98751 12.5806 9.98751 12.985C9.98751 13.3815 9.73009 13.6615 9.36551 13.6615H6.25558ZM12.1108 14.0035C11.5889 14.0035 11.1957 13.5681 11.1957 13.0005C11.1957 12.4252 11.5889 11.9975 12.1108 11.9975C12.6398 11.9975 13.0402 12.4252 13.0402 13.0005C13.0402 13.5681 12.6398 14.0035 12.1108 14.0035ZM1.00089 7.29339V2.89252H0.679177C0.27882 2.89252 0 3.16466 0 3.57676V6.61694C0 7.02903 0.27882 7.29339 0.679177 7.29339H1.00089ZM14.6345 7.29339H14.949C15.3494 7.29339 15.6282 7.02903 15.6282 6.61694V3.57676C15.6282 3.16466 15.3494 2.89252 14.949 2.89252H14.6345V7.29339Z" fill="#24F07D"/>
</g>
<defs>
<clipPath id="clip0_2282_846">
<rect width="16" height="18" fill="white"/>
</clipPath>
</defs>
</svg>
