<svg width="16" height="12" viewBox="0 0 16 12" fill="none" xmlns="http://www.w3.org/2000/svg">
<g clip-path="url(#clip0_2282_837)">
<path d="M2.73284 3.68586C2.88503 2.98226 3.20927 2.05918 3.42763 1.68478C3.60629 1.3814 3.79819 1.24583 4.15551 1.20064C4.6584 1.1361 5.7833 1.09091 7.82797 1.09091C9.87928 1.09091 11.0042 1.12319 11.5004 1.20064C11.8577 1.25229 12.0431 1.3814 12.2283 1.68478C12.4533 2.05273 12.7577 2.98226 12.9297 3.68586C12.9892 3.9247 12.8834 4.01508 12.632 4.00216C11.5335 3.93115 10.2233 3.86661 7.82797 3.86661C5.43922 3.86661 4.12904 3.93115 3.0306 4.00216C2.77254 4.01508 2.67329 3.9247 2.73284 3.68586ZM3.05708 8.4562C2.45493 8.4562 1.99173 8.00432 1.99173 7.41691C1.99173 6.82304 2.45493 6.37764 3.05708 6.37764C3.65922 6.37764 4.12242 6.82304 4.12242 7.41691C4.12242 8.00432 3.65922 8.4562 3.05708 8.4562ZM6.08107 8.19798C5.62449 8.19798 5.31349 7.89459 5.31349 7.44918C5.31349 7.01024 5.62449 6.70685 6.08107 6.70685H9.58148C10.0315 6.70685 10.3424 7.01024 10.3424 7.44918C10.3424 7.89459 10.0315 8.19798 9.58148 8.19798H6.08107ZM12.5989 8.4562C11.9967 8.4562 11.5401 8.00432 11.5401 7.41691C11.5401 6.82304 11.9967 6.37764 12.5989 6.37764C13.2077 6.37764 13.6642 6.82304 13.6642 7.41691C13.6642 8.00432 13.2077 8.4562 12.5989 8.4562ZM7.82797 10.1991C10.0513 10.1991 13.0091 10.0893 14.2597 9.94734C15.1596 9.8505 15.656 9.36632 15.656 8.54007V7.404C15.656 6.31308 15.431 5.70631 14.8222 4.9317L14.2597 4.22809C14.0215 3.06617 13.5781 1.84616 13.3532 1.36848C12.9959 0.639055 12.3144 0.206563 11.4343 0.0903714C10.9909 0.0322755 9.54176 0 7.82797 0C6.12077 0 4.67163 0.0387306 4.2283 0.0903714C3.34822 0.193653 2.66005 0.639055 2.30935 1.36848C2.07775 1.84616 1.64103 3.06617 1.3962 4.22809L0.840365 4.9317C0.22498 5.70631 0 6.31308 0 7.404V8.54007C0 9.36632 0.502896 9.8505 1.3962 9.94734C2.65343 10.0893 5.60464 10.1991 7.82797 10.1991ZM0.880065 11.9742H1.65426C2.15054 11.9742 2.53433 11.5998 2.53433 11.1221V9.5148L0 8.34003V11.1221C0 11.5998 0.383789 11.9742 0.880065 11.9742ZM14.0016 11.9742H14.7825C15.2788 11.9742 15.656 11.5998 15.656 11.1221V8.34003L13.1282 9.5148V11.1221C13.1282 11.5998 13.5054 11.9742 14.0016 11.9742Z" fill="#1A1A1A"/>
</g>
<defs>
<clipPath id="clip0_2282_837">
<rect width="16" height="12" fill="white"/>
</clipPath>
</defs>
</svg>
