<svg width="18" height="16" viewBox="0 0 18 16" fill="none" xmlns="http://www.w3.org/2000/svg">
<g clip-path="url(#clip0_2282_832)">
<path d="M8.62925 15.2013C10.7554 15.2013 12.4916 12.0579 12.4916 7.84377C12.4916 3.60668 10.763 0.463288 8.62925 0.463288C6.49541 0.463288 4.76693 3.60668 4.76693 7.84377C4.76693 12.0579 6.50306 15.2013 8.62925 15.2013ZM8.62925 1.38871C10.1283 1.38871 11.4667 4.3715 11.4667 7.84377C11.4667 11.2549 10.1283 14.2682 8.62925 14.2682C7.13021 14.2682 5.79178 11.2549 5.79178 7.84377C5.79178 4.3715 7.13021 1.38871 8.62925 1.38871ZM8.13212 0.570364V15.056H9.13403V0.570364H8.13212ZM8.62925 10.7041C6.27361 10.7041 4.18567 11.3237 3.11493 12.3103L3.88739 12.9451C4.89695 12.142 6.5413 11.7061 8.62925 11.7061C10.7172 11.7061 12.3615 12.142 13.3711 12.9451L14.1436 12.3103C13.0728 11.3237 10.9849 10.7041 8.62925 10.7041ZM15.6885 7.32368H1.57V8.32559H15.6885V7.32368ZM8.62925 4.991C10.9849 4.991 13.0728 4.3715 14.1436 3.38489L13.3711 2.75009C12.3615 3.5455 10.7172 3.9891 8.62925 3.9891C6.5413 3.9891 4.89695 3.5455 3.88739 2.75009L3.11493 3.38489C4.18567 4.3715 6.27361 4.991 8.62925 4.991ZM8.62925 15.6296C12.9352 15.6296 16.4304 12.1344 16.4304 7.82847C16.4304 3.52255 12.9352 0.0273438 8.62925 0.0273438C4.32333 0.0273438 0.828125 3.52255 0.828125 7.82847C0.828125 12.1344 4.32333 15.6296 8.62925 15.6296ZM8.62925 14.5894C4.89695 14.5894 1.86827 11.5607 1.86827 7.82847C1.86827 4.09617 4.89695 1.06749 8.62925 1.06749C12.3615 1.06749 15.3902 4.09617 15.3902 7.82847C15.3902 11.5607 12.3615 14.5894 8.62925 14.5894Z" fill="#24F07D"/>
</g>
<defs>
<clipPath id="clip0_2282_832">
<rect width="16.3438" height="15.9453" fill="white" transform="translate(0.828125 0.0273438)"/>
</clipPath>
</defs>
</svg>
