<svg width="30" height="16" viewBox="0 0 30 16" fill="none" xmlns="http://www.w3.org/2000/svg">
<g clip-path="url(#clip0_2282_876)">
<path d="M10.0066 9.84597L8.34906 12.0174C7.63315 12.9465 7.61064 14.1193 8.1526 14.9503H2.59394C1.12026 14.9503 0.771228 13.5301 1.60114 12.5035L4.24601 9.24648C4.98286 9.29278 5.31638 10.1187 6.49532 10.1187C7.65875 10.1187 8.12413 9.20016 8.7679 9.20016C9.17459 9.20016 9.51153 9.57573 10.0066 9.84597ZM10.102 5.31786L11.8317 7.45519L10.5635 9.11654C10.1056 8.856 9.5902 8.35115 8.7679 8.35115C7.651 8.35115 7.1003 9.26962 6.49532 9.26962C6.04546 9.26962 5.60335 8.68303 4.85876 8.49779L7.43382 5.31786C7.82939 4.82389 8.30252 4.5769 8.7679 4.5769C9.22552 4.5769 9.69864 4.82389 10.102 5.31786Z" fill="#24F07D"/>
<path d="M16.0355 7.30149C16.7335 7.30149 17.3618 6.2518 18.6416 6.2518C19.9135 6.2518 20.5418 7.30149 21.2399 7.30149C21.8139 7.30149 22.349 6.56826 23.2642 6.34443L19.9833 2.06078C19.2233 1.06511 18.0598 1.04968 17.292 2.06078L14.0111 6.34443C14.9263 6.57597 15.4693 7.30149 16.0355 7.30149ZM10.2416 14.9503H27.0415C28.4455 14.9503 28.7867 13.5688 28.0886 12.658L23.939 7.24747C23.0083 7.33237 22.5042 8.26628 21.2399 8.26628C19.9136 8.26628 19.3784 7.21659 18.6416 7.21659C17.897 7.21659 17.3618 8.26628 16.0355 8.26628C14.7712 8.26628 14.267 7.33237 13.344 7.24747L9.18671 12.658C8.48865 13.5688 8.82992 14.9503 10.2416 14.9503Z" fill="#24F07D"/>
</g>
<defs>
<clipPath id="clip0_2282_876">
<rect width="29" height="16" fill="white" transform="translate(0.5)"/>
</clipPath>
</defs>
</svg>
