<svg width="24" height="16" viewBox="0 0 24 16" fill="none" xmlns="http://www.w3.org/2000/svg">
<g clip-path="url(#clip0_2282_866)">
<path d="M4.79527 16H18.7881C19.7706 16 20.0458 15.1245 19.6685 14.3884L15.7301 6.60148L22.2705 15.6126C22.467 15.8838 22.7107 15.9768 22.9387 15.9768C23.2767 15.9768 23.5912 15.7831 23.5912 15.3259V13.0092C23.5912 12.7225 23.3475 12.4823 23.0567 12.4823C22.7658 12.4823 22.5299 12.7225 22.5299 13.0092V14.1947L12.7429 0.720602C12.2318 0.00776902 11.3514 0.0232654 10.8404 0.720602L1.06125 14.1947V13.0092C1.06125 12.7225 0.825416 12.4823 0.534555 12.4823C0.235833 12.4823 0 12.7225 0 13.0092V15.3259C0 15.7831 0.314444 15.9768 0.652472 15.9768C0.880444 15.9768 1.12414 15.8838 1.32067 15.6126L7.86111 6.60148L3.9227 14.3884C3.54536 15.1245 3.81263 16 4.79527 16ZM7.82966 14.8146L11.2886 7.64749C11.3986 7.42279 11.5951 7.31431 11.7917 7.31431C11.9882 7.31431 12.1847 7.42279 12.2869 7.64749L15.7536 14.8146H13.0573L11.7917 9.32884L10.5181 14.8146H7.82966Z" fill="#24F07D"/>
</g>
<defs>
<clipPath id="clip0_2282_866">
<rect width="24" height="16" fill="white"/>
</clipPath>
</defs>
</svg>
